# xmcd CD database file
#
# Track frame offsets:
#	150
#	10933
#	27605
#	42278
#	52233
#	62928
#	70780
#	90738
#	106168
#	116885
#	126345
#	133065
#	151615
#	165975
#	176470
#	184893
#	192280
#	206505
#	218373
#	226543
#
# Disc length: 3140 seconds
#
# Revision: 0
# Processed by: cddbd v1.5.1PL0 Copyright (c) Steve Scherf et al.
# Submitted via: CDex 1.51
#
DISCID=120c4214
DTITLE=小林克也 - 小林克也のおしゃべりアメリ缶５
DYEAR=1987
DGENRE=Vocal
TTITLE0=市内見学１
TTITLE1=市内見学２
TTITLE2=市内見学３
TTITLE3=市内見学４
TTITLE4=市内見学５
TTITLE5=郵便局・銀行１
TTITLE6=郵便局・銀行２
TTITLE7=郵便局・銀行３
TTITLE8=郵便局・銀行４
TTITLE9=郵便局・銀行５
TTITLE10=道をたずねる１
TTITLE11=道をたずねる２
TTITLE12=道をたずねる３
TTITLE13=道をたずねる４
TTITLE14=道をたずねる５
TTITLE15=困ったとき１
TTITLE16=困ったとき２
TTITLE17=困ったとき３
TTITLE18=困ったとき４
TTITLE19=困ったとき５
EXTD=YEAR: 1987
EXTT0=
EXTT1=
EXTT2=
EXTT3=
EXTT4=
EXTT5=
EXTT6=
EXTT7=
EXTT8=
EXTT9=
EXTT10=
EXTT11=
EXTT12=
EXTT13=
EXTT14=
EXTT15=
EXTT16=
EXTT17=
EXTT18=
EXTT19=
PLAYORDER=
